<svg width="59" height="74" viewBox="0 0 59 74" fill="none" xmlns="http://www.w3.org/2000/svg">
<path d="M50.2666 65.8196C55.2317 61.2547 58.0164 54.8103 57.9999 47.3182C58.0331 33.6996 48.6563 23.9287 36.0073 23.9287C30.2742 23.9287 25.2908 26.0146 22.3495 29.2364L23.3254 17.9711H52.775H53.775V16.9711V2V1H52.775H7.35696H6.42398L6.35936 1.93074L3.71878 39.9654L3.65793 40.842L4.51936 41.0151L20.6269 44.2521L21.402 44.4078L21.7324 43.6896C23.0983 40.7209 26.2414 38.8767 29.8019 38.8767C32.3659 38.8767 34.4808 39.7731 35.9518 41.298C37.4245 42.8246 38.3233 45.0559 38.308 47.852H38.308L38.308 47.8629C38.3233 50.6589 37.4245 52.8903 35.9518 54.4169C34.4808 55.9418 32.3659 56.8382 29.8019 56.8382C25.3472 56.8382 21.937 54.1011 21.8236 49.9879L21.7967 49.0154H20.8239H3H1.99228L2.00003 50.0231C2.10458 63.6224 13.8597 73 29.8019 73C38.2439 73 45.3072 70.3792 50.2666 65.8196Z" stroke="url(#paint0_linear_0_355)" stroke-width="2"/>
<defs>
<linearGradient id="paint0_linear_0_355" x1="3" y1="19.3809" x2="59.9186" y2="34.1578" gradientUnits="userSpaceOnUse">
<stop offset="0.453125" stop-color="#FFA775"/>
<stop offset="1" stop-color="#F553E5"/>
</linearGradient>
</defs>
</svg>
