<svg width="56" height="74" viewBox="0 0 56 74" fill="none" xmlns="http://www.w3.org/2000/svg">
<path d="M28.8487 72.9997L28.8491 72.9997C36.5598 73.0339 43.1137 70.4861 47.7426 66.0737C52.3736 61.6593 55.0163 55.4361 54.9999 48.2452C55.0329 34.9695 45.8379 25.2537 33.3181 25.2537C26.6776 25.2537 20.6193 28.0446 17.0145 32.9278C17.3324 27.7611 18.4335 23.6068 20.2258 20.6457C22.313 17.1973 25.3423 15.3431 29.3459 15.3431C31.7357 15.3431 33.7291 16.0045 35.2371 17.1617C36.7423 18.3168 37.823 20.0106 38.3178 22.1839L38.495 22.9619H39.2929H53.3105H54.4377L54.3034 21.8427C52.8946 10.1071 43.2574 1 29.3459 1C20.7353 1 13.6171 4.55051 8.67143 11.0776C3.74873 17.5744 1.0333 26.9421 1.00006 38.5274L1.00006 38.5289C0.983427 51.1737 4.28735 59.8049 9.50755 65.2868C14.7299 70.7709 21.7391 72.9654 28.8487 72.9997ZM39.212 48.6394L39.2121 48.6491C39.2425 54.9648 34.751 59.6879 28.7879 59.6879C22.835 59.6879 18.3648 54.8421 18.3637 48.6798C18.3953 42.5542 22.9597 37.6671 28.8863 37.6671C34.8419 37.6671 39.2425 42.3822 39.212 48.6394Z" stroke="url(#paint0_linear_0_359)" stroke-width="2"/>
<defs>
<linearGradient id="paint0_linear_0_359" x1="2" y1="19.3809" x2="69.3067" y2="26.0472" gradientUnits="userSpaceOnUse">
<stop offset="0.5" stop-color="#F553E5"/>
<stop offset="1" stop-color="#5295FA"/>
</linearGradient>
</defs>
</svg>
