<svg width="17" height="20" viewBox="0 0 17 20" fill="none" xmlns="http://www.w3.org/2000/svg">
<path d="M15.1197 3.47738C13.5972 1.26762 11.1843 0 8.50015 0C5.816 0 3.4031 1.26762 1.88063 3.47738C0.365628 5.67598 0.0158091 8.45945 0.942998 10.9186C1.191 11.5902 1.58522 12.2427 2.11192 12.8541L7.96929 19.7538C8.10176 19.91 8.29585 20 8.50015 20C8.70445 20 8.89854 19.91 9.03101 19.7538L14.8867 12.8559C15.4158 12.241 15.8095 11.5893 16.0554 10.9231C16.9845 8.45945 16.6347 5.67598 15.1197 3.47738ZM14.7496 10.4333C14.56 10.9473 14.2504 11.4555 13.8299 11.9443L13.8266 11.948L8.50015 18.2221L3.17041 11.9441C2.75017 11.4557 2.44055 10.9476 2.24902 10.4287C1.48224 8.39488 1.77324 6.09348 3.02769 4.27273C4.28608 2.44617 6.28084 1.39859 8.50015 1.39859C10.7194 1.39859 12.7139 2.44613 13.9724 4.27273C15.2271 6.09348 15.5183 8.39488 14.7496 10.4333Z" fill="#004F89"/>
<path d="M8.49642 4.15051C6.34337 4.15051 4.59151 5.90715 4.59151 8.0666C4.59151 10.2261 6.34314 11.9827 8.49642 11.9827C10.6497 11.9827 12.4013 10.2261 12.4013 8.0666C12.4013 5.90738 10.6495 4.15051 8.49642 4.15051ZM8.49642 10.5841C7.11226 10.5841 5.98611 9.45469 5.98611 8.06656C5.98611 6.67844 7.11226 5.54906 8.49642 5.54906C9.88058 5.54906 11.0067 6.67844 11.0067 8.06656C11.0067 9.45469 9.88058 10.5841 8.49642 10.5841Z" fill="#004F89"/>
</svg>
