<svg width="437" height="162" viewBox="0 0 437 162" fill="none" xmlns="http://www.w3.org/2000/svg">
<path d="M0.723934 59.0512H3.48352V47.764H39.0867V58.8929H41.8463V45.1402H36.3271V1.43914H10.8349L9.99796 22.1361C9.47771 34.9614 6.98956 41.227 3.61924 45.1402H0.723934V59.0512ZM7.05742 45.1402C10.4956 39.9603 12.2825 33.197 12.7349 22.1361L13.4588 4.06302H33.5676V45.1402H7.05742ZM51.5275 47.764H67.791C76.7483 47.764 81.3853 42.8556 81.3853 35.753C81.3853 29.0124 77.1329 24.5564 72.3601 24.1718V23.9004C76.6805 22.792 79.5758 19.0146 79.5758 13.3823C79.5758 6.25711 74.984 1.43914 66.5695 1.43914H51.5275V47.764ZM54.3549 45.1402V25.529H67.8815C74.2602 25.529 78.6484 29.9172 78.6484 35.753C78.6484 41.2722 74.7578 45.1402 67.791 45.1402H54.3549ZM54.3549 22.9504V4.06302H66.5695C73.1292 4.06302 76.8388 7.63691 76.8388 13.3823C76.8388 18.6979 73.4459 22.9504 67.5422 22.9504H54.3549ZM129.367 24.6016C129.367 10.2834 121.315 0.805795 109.779 0.805795C98.1973 0.805795 90.1674 10.2834 90.1674 24.6016C90.1674 38.8972 98.1973 48.3974 109.779 48.3974C121.315 48.3974 129.367 38.9198 129.367 24.6016ZM126.608 24.6016C126.608 37.4721 119.595 45.683 109.779 45.683C99.8712 45.683 92.9496 37.4269 92.9496 24.6016C92.9496 11.6632 99.9617 3.52014 109.779 3.52014C119.595 3.52014 126.585 11.7311 126.608 24.6016ZM140.417 1.43914V47.764H143.176L172.718 6.57379H172.989V47.764H175.816V1.43914H173.034L143.493 42.6746H143.222V1.43914H140.417ZM189.185 47.764H192.012V25.8909H219.925V47.764H222.752V1.43914H219.925V23.267H192.012V1.43914H189.185V47.764ZM234.362 47.764L239.655 32.9482H259.786L265.079 47.764H268.065L251.349 1.43914H248.092L231.376 47.764H234.362ZM240.582 30.3243L249.607 5.0809H249.833L258.859 30.3243H240.582ZM303.012 47.764V1.43914H288.739C279.94 1.43914 274.624 6.95832 274.624 14.9883C274.624 21.2313 277.882 25.9135 283.514 27.6552L272.589 47.764H275.846L286.364 28.266C287.133 28.3564 287.902 28.4017 288.716 28.4017H300.185V47.764H303.012ZM300.185 25.7552H288.784C281.682 25.7552 277.429 21.5479 277.429 14.9883C277.429 8.38335 281.682 4.06302 288.807 4.06302H300.185V25.7552Z" fill="#004F89"/>
<path d="M3.3327 144.764H36.4258C51.7022 144.764 61.1427 136.422 61.1427 124.853C61.1427 114.932 53.8306 108.444 44.8021 108.101V107.414C52.9381 105.801 58.3964 99.7931 58.3964 92.0347C58.3964 81.3241 49.8828 74.4583 33.8168 74.4583H3.3327V144.764ZM22.4196 129.522V114.692H31.6198C37.4214 114.692 40.9573 117.438 40.9573 122.382C40.9573 127.085 37.7647 129.522 31.3451 129.522H22.4196ZM22.4196 102.883V89.4257H30.5212C35.2586 89.4257 38.7602 91.8287 38.7602 96.1542C38.7602 100.48 35.2586 102.883 30.2466 102.883H22.4196ZM87.4044 98.0766V74.4583H68.3175V144.764H94.5448C112.293 144.764 124.102 135.152 124.068 121.146C124.102 107.139 112.293 98.0766 94.5448 98.0766H87.4044ZM148.098 74.4583H129.011V144.764H148.098V74.4583ZM87.4044 112.632H94.5448C101.445 112.632 105.152 116.202 105.118 121.008C105.152 126.089 101.445 129.797 94.5448 129.797H87.4044V112.632ZM206.552 74.4583H157.118V144.764H176.205V89.8377H206.552V74.4583ZM278.471 109.611C278.471 86.1301 263.366 73.4971 244.279 73.4971C225.055 73.4971 210.088 86.1301 210.088 109.611C210.088 132.955 225.055 145.725 244.279 145.725C263.366 145.725 278.471 133.092 278.471 109.611ZM258.835 109.611C258.835 122.244 253.754 129.11 244.279 129.11C234.804 129.11 229.724 122.244 229.724 109.611C229.724 96.9781 234.804 90.1123 244.279 90.1123C253.754 90.1123 258.835 96.9781 258.835 109.611ZM284.968 161.654H303.368V144.764H340.993V161.654H359.393V130.071H351.978V74.4583H302.269L299.935 104.256C298.562 121.42 294.854 127.05 289.911 130.071H284.968V161.654ZM311.744 130.071C314.765 124.853 317.374 117.164 318.335 104.256L319.434 89.8377H333.577V130.071H311.744ZM384.11 144.764L388.161 131.307H411.367L415.418 144.764H436.015L412.809 74.4583H386.719L363.512 144.764H384.11ZM392.486 117.026L399.489 93.8198H400.038L407.042 117.026H392.486Z" fill="url(#paint0_linear_0_330)"/>
<defs>
<linearGradient id="paint0_linear_0_330" x1="-1.19873" y1="22.053" x2="455.331" y2="6.23508" gradientUnits="userSpaceOnUse">
<stop offset="0.5" stop-color="#F553E5"/>
<stop offset="1" stop-color="#5295FA"/>
</linearGradient>
</defs>
</svg>
